<svg width="200" height="200" viewBox="0 0 200 200" fill="none" xmlns="http://www.w3.org/2000/svg">
<rect width="200" height="200" fill="black"/>
<g clip-path="url(#clip0_315_2526)">
<path d="M161.399 80.447C168.401 80.447 174.492 84.7701 175.456 92.1256C175.456 92.1256 175.969 96.3426 174.89 99.3396C174.262 101.152 173.723 102.372 172.927 103.795C170.319 108.446 166.907 112.486 163.344 116.411C162.566 117.26 161.797 118.109 161.01 118.957C160.259 119.771 159.348 120.177 158.402 120.177C157.58 120.177 156.74 119.868 155.989 119.223C154.495 117.949 154.309 115.863 155.617 114.289C156.996 112.627 158.437 111.009 159.923 109.285C159.198 109.038 158.614 108.852 158.022 108.64C157.792 108.561 157.571 108.454 157.35 108.357C151.577 106.651 147.219 101.364 147.219 94.7778C147.219 86.0166 153.734 80.447 161.39 80.447M161.39 76.0001C150.781 76.0001 142.781 84.0717 142.781 94.7778C142.781 101.762 146.547 107.933 152.461 111.133C152.382 111.239 152.293 111.337 152.214 111.434C149.367 114.855 149.765 119.771 153.115 122.617C154.654 123.926 156.484 124.624 158.393 124.624C160.595 124.624 162.672 123.678 164.246 121.981C165.033 121.132 165.82 120.266 166.598 119.408C170.178 115.465 173.882 111.107 176.764 105.979C177.693 104.344 178.329 102.885 179.054 100.807C180.433 96.9703 179.903 92.1256 179.832 91.5863C178.621 82.3919 171.027 75.9912 161.373 75.9912H161.39V76.0001Z" fill="white"/>
<path d="M20 107.614L23.6866 102.142C26.5952 104.909 30.8476 106.836 34.9055 106.836C38.486 106.836 41.5007 105.174 41.5007 102.664C41.5007 99.6401 37.4517 98.703 33.7651 97.8189C26.9135 96.1922 21.3084 92.9034 21.3084 86.6C21.3084 80.2965 26.8516 76.0176 34.9055 76.0176C40.2542 76.0176 44.6657 77.9007 47.3179 80.4998L43.9938 85.9281C41.9693 83.9477 38.3888 82.436 34.7994 82.436C31.2101 82.436 28.6728 84.0538 28.6728 86.2905C28.6728 89.0577 32.4124 90.2512 35.7365 90.985C39.0607 91.6569 48.8739 94.1058 48.8739 102.345C48.8739 108.808 42.7473 113.246 34.9055 113.246C29.3977 113.246 23.6336 111.009 20 107.614Z" fill="white"/>
<path d="M91.8755 76.6455V112.61H84.7144V87.9086L74.7951 106.156H70.746L60.8798 87.9086V112.619H53.7188V76.6455H62.6479L72.8236 95.3614L83.0435 76.6455H91.8755Z" fill="white"/>
<path d="M97.3301 94.6362C97.3301 84.0538 105.481 76.0176 116.232 76.0176C122.933 76.0176 128.697 79.1384 132.021 84.098L125.842 87.9526C123.764 84.876 120.29 82.9487 116.232 82.9487C109.689 82.9487 104.703 87.9526 104.703 94.6274C104.703 101.302 109.689 106.306 116.232 106.306C120.281 106.306 123.764 104.379 125.842 101.302L132.021 105.157C128.697 110.108 122.933 113.237 116.232 113.237C105.481 113.237 97.3301 105.21 97.3301 94.6274V94.6362Z" fill="white"/>
</g>
<defs>
<clipPath id="clip0_315_2526">
<rect width="160" height="48.633" fill="white" transform="translate(20 76)"/>
</clipPath>
</defs>
</svg>
