<svg width="200" height="200" viewBox="0 0 200 200" fill="none" xmlns="http://www.w3.org/2000/svg">
<rect width="200" height="200" fill="black"/>
<path d="M69.2691 152.355V155.08H68.2249V146.749H70.5944C71.2861 146.843 71.8618 147.121 72.3259 147.592C72.8658 148.136 73.1381 148.787 73.1381 149.545C73.1381 150.304 72.8658 150.964 72.317 151.52C71.7681 152.077 71.0942 152.355 70.291 152.355H69.2691ZM69.2691 147.664V151.44H70.291C70.7729 151.44 71.1969 151.26 71.5583 150.896C71.9198 150.537 72.0983 150.084 72.0983 149.545C72.0983 149.007 71.9198 148.562 71.5583 148.203C71.1969 147.844 70.7774 147.664 70.291 147.664H69.2691Z" fill="white"/>
<path d="M76.2975 150.578C75.82 150.65 75.4541 150.843 75.1908 151.148C74.932 151.453 74.7981 151.839 74.7981 152.302V155.08H73.7539V149.788H74.7981V150.542C74.9499 150.129 75.2801 149.842 75.7888 149.68L76.2975 150.578Z" fill="white"/>
<path d="M77.962 152.275V152.293C77.962 152.854 78.1494 153.33 78.5332 153.711C78.9125 154.093 79.3632 154.286 79.8808 154.286C80.3985 154.286 80.8447 154.093 81.233 153.702C81.2865 153.648 81.3892 153.527 81.5454 153.338L82.5226 153.689C82.3754 153.936 82.2058 154.155 82.0139 154.344C81.4293 154.937 80.7198 155.228 79.8808 155.228C79.0419 155.228 78.3413 154.937 77.7656 154.357C77.19 153.778 76.8999 153.092 76.8999 152.302C76.8999 151.511 77.19 150.811 77.7656 150.232C78.3413 149.653 79.0464 149.366 79.8808 149.366C80.7153 149.366 81.4338 149.658 82.0139 150.246C82.5182 150.757 82.7681 151.435 82.7681 152.284H77.962V152.275ZM78.1449 151.359H81.5944C81.349 150.641 80.7778 150.281 79.8808 150.281C78.9839 150.281 78.4038 150.641 78.1494 151.359" fill="white"/>
<path d="M84.8968 152.445C84.5041 152.23 84.2363 152.05 84.0891 151.902C83.8035 151.615 83.6607 151.287 83.6607 150.919C83.6607 150.551 83.799 150.228 84.0757 149.945C84.3524 149.662 84.696 149.523 85.111 149.523C85.526 149.523 85.8607 149.653 86.1106 149.913C86.3694 150.178 86.5033 150.461 86.5033 150.775V150.937L85.5706 151.319C85.5126 150.883 85.4457 150.627 85.3743 150.551C85.2984 150.475 85.2136 150.434 85.111 150.434C85.0083 150.434 84.9146 150.479 84.8298 150.569C84.7406 150.659 84.696 150.775 84.696 150.924C84.696 151.072 84.7451 151.193 84.8477 151.296C84.9146 151.363 85.0664 151.476 85.3029 151.624C85.7357 151.862 86.0526 152.082 86.2534 152.279C86.5658 152.602 86.7264 152.984 86.7264 153.428C86.7264 153.873 86.5613 154.272 86.2355 154.604C85.9098 154.937 85.4992 155.103 85.0083 155.103C84.5175 155.103 84.1069 154.937 83.7812 154.604C83.4509 154.272 83.2903 153.855 83.2903 153.361L84.3256 153.101C84.3256 153.55 84.397 153.846 84.5398 153.985C84.6826 154.129 84.8388 154.2 85.0128 154.2C85.1868 154.2 85.343 154.129 85.4858 153.985C85.6286 153.841 85.7 153.657 85.7 153.428C85.7 153.199 85.6242 153.024 85.4724 152.872C85.3787 152.782 85.1868 152.643 84.8968 152.454" fill="white"/>
<path d="M88.5203 152.275V152.293C88.5203 152.854 88.7077 153.33 89.0915 153.711C89.4708 154.093 89.9215 154.286 90.4392 154.286C90.9568 154.286 91.4031 154.093 91.7913 153.702C91.8449 153.648 91.9475 153.527 92.1037 153.338L93.081 153.689C92.9337 153.936 92.7686 154.155 92.5767 154.344C91.9921 154.937 91.2826 155.228 90.4392 155.228C89.5958 155.228 88.8996 154.937 88.324 154.357C87.7483 153.778 87.4583 153.092 87.4583 152.302C87.4583 151.511 87.7483 150.811 88.324 150.232C88.8996 149.653 89.6047 149.366 90.4392 149.366C91.2737 149.366 91.9921 149.658 92.5767 150.246C93.081 150.757 93.3309 151.435 93.3309 152.284H88.5248L88.5203 152.275ZM88.7033 151.359H92.1528C91.9074 150.641 91.3362 150.281 90.4392 150.281C89.5422 150.281 88.9621 150.641 88.7077 151.359" fill="white"/>
<path d="M95.1469 151.134V155.085H94.1072V149.792H95.1469C95.3254 149.599 95.6869 149.505 96.2403 149.505C96.9052 149.505 97.4407 149.707 97.8467 150.12C98.2528 150.533 98.4626 151.031 98.467 151.619V155.085H97.4317V151.664C97.4317 151.305 97.3113 151.009 97.0703 150.771C96.8293 150.533 96.5526 150.416 96.2403 150.416C95.9279 150.416 95.6646 150.528 95.4281 150.753C95.2942 150.887 95.2005 151.018 95.1469 151.139" fill="white"/>
<path d="M100.198 149.792V147.736H101.234V149.792H102.211V150.695H101.234V155.085H100.198V150.695H99.2212V149.792H100.198Z" fill="white"/>
<path d="M103.76 152.275V152.293C103.76 152.854 103.947 153.33 104.331 153.711C104.71 154.093 105.161 154.286 105.678 154.286C106.196 154.286 106.642 154.093 107.031 153.702C107.084 153.648 107.187 153.527 107.343 153.338L108.32 153.689C108.173 153.936 108.003 154.155 107.816 154.344C107.231 154.937 106.522 155.228 105.678 155.228C104.835 155.228 104.139 154.937 103.563 154.357C102.988 153.778 102.698 153.092 102.698 152.302C102.698 151.511 102.988 150.811 103.563 150.232C104.139 149.653 104.844 149.366 105.678 149.366C106.513 149.366 107.231 149.658 107.816 150.246C108.32 150.757 108.57 151.435 108.57 152.284H103.764L103.76 152.275ZM103.943 151.359H107.392C107.147 150.641 106.575 150.281 105.678 150.281C104.781 150.281 104.201 150.641 103.947 151.359" fill="white"/>
<path d="M115.099 155.085H114.059V154.16C113.649 154.869 113.024 155.224 112.18 155.224C111.337 155.224 110.641 154.932 110.065 154.353C109.49 153.774 109.199 153.087 109.199 152.297C109.199 151.507 109.49 150.811 110.065 150.228C110.641 149.649 111.346 149.361 112.18 149.361C113.015 149.361 113.644 149.712 114.059 150.416V146.758H115.099V155.089V155.085ZM114.059 152.71V151.866C113.988 151.485 113.809 151.153 113.537 150.874C113.149 150.479 112.698 150.282 112.185 150.282C111.672 150.282 111.217 150.475 110.837 150.861C110.458 151.247 110.266 151.723 110.266 152.293C110.266 152.863 110.458 153.33 110.837 153.711C111.217 154.093 111.667 154.286 112.185 154.286C112.703 154.286 113.149 154.093 113.537 153.702C113.814 153.424 113.988 153.096 114.059 152.715" fill="white"/>
<path d="M119.106 146.753H120.146V150.398C120.557 149.702 121.181 149.357 122.016 149.357C122.85 149.357 123.56 149.648 124.135 150.223C124.711 150.802 124.997 151.493 124.997 152.292C124.997 153.091 124.707 153.769 124.135 154.348C123.56 154.927 122.855 155.219 122.016 155.219C121.177 155.219 120.557 154.869 120.146 154.173V155.085H119.106V146.753ZM120.146 151.848V152.741C120.217 153.114 120.391 153.442 120.681 153.724C121.056 154.097 121.503 154.285 122.016 154.285C122.529 154.285 122.98 154.092 123.359 153.711C123.738 153.329 123.93 152.858 123.93 152.292C123.93 151.727 123.738 151.246 123.359 150.86C122.975 150.474 122.529 150.281 122.016 150.281C121.503 150.281 121.047 150.479 120.659 150.874C120.387 151.148 120.217 151.471 120.146 151.848Z" fill="white"/>
<path d="M127.192 156.921H126.068L127.438 153.953L125.51 149.792H126.634L128.004 152.714L129.374 149.792H130.494L127.192 156.921Z" fill="white"/>
<path d="M117.776 175.002C117.437 175.002 117.098 174.948 116.777 174.845C116.455 174.751 116.152 174.607 115.871 174.428L115.782 174.369L115.817 174.271C115.862 174.149 115.893 174.024 115.915 173.902L115.942 173.75L116.09 173.799C116.228 173.849 116.366 173.876 116.513 173.889C116.679 173.902 116.817 173.911 116.928 173.911C116.946 173.911 116.96 173.911 116.973 173.911C117.21 173.911 117.446 173.88 117.674 173.813C117.875 173.75 118.044 173.624 118.174 173.458C118.339 173.225 118.45 172.955 118.499 172.672C118.589 172.219 118.629 171.752 118.615 171.29V164.848H120.57V168.538C120.543 169.005 120.65 169.463 120.878 169.862C121.088 170.159 121.427 170.334 121.793 170.334C121.819 170.334 121.846 170.334 121.877 170.334H121.882H150.004V171.77H122.301C122.19 171.77 122.074 171.757 121.958 171.743C121.574 171.689 121.217 171.505 120.954 171.227C120.802 171.065 120.673 170.886 120.57 170.693V170.827C120.579 171.451 120.512 172.075 120.374 172.686C120.266 173.153 120.075 173.593 119.811 173.988C119.584 174.32 119.276 174.585 118.914 174.76C118.571 174.921 118.187 175.007 117.808 175.007H117.781M112.586 175.007C112.185 175.007 111.788 174.953 111.399 174.854C111.034 174.769 110.681 174.625 110.355 174.437L110.262 174.383L110.297 174.28C110.342 174.158 110.373 174.033 110.395 173.911L110.422 173.763L110.565 173.808C110.726 173.858 110.895 173.889 111.065 173.898C111.257 173.911 111.431 173.92 111.569 173.92H111.618C111.917 173.92 112.212 173.893 112.502 173.84C112.743 173.795 112.966 173.691 113.153 173.534C113.35 173.355 113.497 173.126 113.577 172.87C113.684 172.515 113.742 172.147 113.751 171.779H109.739L109.704 171.698C109.507 171.263 109.351 170.805 109.235 170.343C109.115 169.885 109.052 169.409 109.052 168.933C109.043 168.359 109.15 167.793 109.369 167.254C109.565 166.769 109.851 166.338 110.217 165.966C110.395 165.786 110.592 165.629 110.797 165.49C111.007 165.351 111.23 165.234 111.462 165.144C111.93 164.956 112.426 164.857 112.935 164.857H115.661V170.594C115.661 170.796 115.661 170.994 115.652 171.182C115.648 171.371 115.639 171.559 115.63 171.739C115.63 172.291 115.518 172.83 115.3 173.337C115.126 173.723 114.867 174.069 114.55 174.342C114.26 174.585 113.934 174.76 113.573 174.863C113.256 174.957 112.921 175.007 112.591 175.011L112.586 175.007ZM113.724 170.334V166.321H112.845C112.644 166.325 112.444 166.361 112.256 166.433C112.033 166.514 111.823 166.644 111.654 166.805C111.449 167.007 111.288 167.245 111.176 167.51C111.034 167.865 110.967 168.237 110.98 168.619C110.98 168.924 111.007 169.225 111.065 169.517C111.118 169.795 111.203 170.069 111.319 170.329H113.729L113.724 170.334ZM101.113 171.779C101.042 171.779 100.966 171.779 100.895 171.77H100.337C100.31 171.77 100.283 171.77 100.257 171.77C99.7791 171.77 99.3105 171.573 98.9759 171.227C98.7617 170.989 98.5921 170.72 98.4761 170.428C98.4537 170.5 98.427 170.572 98.4002 170.643C98.3065 170.872 98.1682 171.074 97.9897 171.245C97.7933 171.425 97.5568 171.559 97.3024 171.635C97.0079 171.725 96.7 171.77 96.3921 171.77C96.3698 171.77 96.3475 171.77 96.3251 171.77H83.1251C83.0582 171.77 82.9957 171.761 82.9332 171.748C82.5405 171.703 82.1701 171.523 81.889 171.24C81.6703 171.012 81.4963 170.747 81.3803 170.459C81.3579 170.527 81.3356 170.594 81.3089 170.661C81.2196 170.89 81.0768 171.097 80.8938 171.258C80.693 171.433 80.461 171.559 80.2111 171.635C79.9121 171.721 79.6086 171.766 79.3007 171.766C79.274 171.766 79.2472 171.766 79.2204 171.766H50V170.329H50.1339C50.4195 170.329 78.7563 170.325 79.1178 170.316C79.2115 170.316 79.3052 170.284 79.39 170.23C79.4614 170.177 79.5105 170.096 79.5328 170.01C79.5774 169.831 79.5953 169.647 79.5908 169.463V164.848H81.5275V168.583C81.5275 168.825 81.5498 169.068 81.5989 169.306C81.6391 169.503 81.7149 169.687 81.8265 169.858C81.9247 170.006 82.0585 170.127 82.2192 170.203C82.3977 170.28 82.5807 170.316 82.777 170.316C82.8038 170.316 82.8261 170.316 82.8529 170.316H96.1109C96.1109 170.316 96.1511 170.316 96.169 170.316C96.3207 170.316 96.4635 170.253 96.5661 170.136C96.6732 169.921 96.7134 169.678 96.6955 169.436V166.76H98.6189V168.498C98.6189 168.749 98.6412 168.996 98.6903 169.243C98.7304 169.445 98.8063 169.638 98.9134 169.813C99.0071 169.966 99.1454 170.087 99.3061 170.168C99.498 170.262 99.7077 170.311 99.9219 170.311H100.689H100.698C100.716 170.311 100.734 170.311 100.752 170.311C100.899 170.311 101.042 170.248 101.14 170.136C101.247 169.916 101.287 169.678 101.27 169.436V165.8H103.206V168.493C103.206 168.745 103.229 168.991 103.278 169.238C103.318 169.44 103.394 169.633 103.501 169.808C103.595 169.961 103.733 170.082 103.894 170.163C104.085 170.257 104.295 170.307 104.509 170.307H104.523L105.687 170.32V164.839H107.642V171.757H104.929C104.902 171.757 104.875 171.757 104.849 171.757C104.371 171.757 103.902 171.559 103.568 171.214C103.349 170.971 103.18 170.697 103.064 170.406C102.961 170.706 102.796 170.989 102.577 171.227H102.573L102.568 171.24C102.167 171.582 101.653 171.77 101.127 171.77M102.153 164.076H98.9803L100.591 162.137L100.614 162.164L102.18 160.278L103.746 162.164L103.769 162.137L105.38 164.076H102.158H102.153ZM102.18 164.045L103.702 162.213H100.663L102.18 164.045ZM64.5299 164.076L66.1408 162.137L67.7518 164.076H64.5299Z" fill="white"/>
<path d="M111.511 165.262C111.288 165.351 111.069 165.464 110.868 165.598C110.668 165.733 110.48 165.886 110.306 166.056C109.954 166.411 109.677 166.837 109.485 167.3C109.275 167.816 109.168 168.368 109.177 168.925C109.177 169.391 109.24 169.854 109.356 170.303C109.472 170.761 109.623 171.205 109.82 171.636H113.881C113.885 172.062 113.827 172.489 113.702 172.902C113.617 173.18 113.457 173.432 113.238 173.629C113.033 173.8 112.787 173.916 112.524 173.966C112.207 174.024 111.89 174.051 111.569 174.047C111.422 174.047 111.248 174.038 111.056 174.024C110.877 174.011 110.699 173.979 110.525 173.925C110.498 174.06 110.467 174.186 110.418 174.316C110.73 174.5 111.074 174.635 111.426 174.72C111.806 174.819 112.194 174.868 112.582 174.868C112.903 174.868 113.22 174.819 113.528 174.724C113.867 174.626 114.184 174.46 114.452 174.231C114.755 173.966 115.001 173.638 115.166 173.27C115.38 172.781 115.487 172.255 115.487 171.721C115.496 171.542 115.505 171.358 115.509 171.165C115.514 170.976 115.518 170.783 115.518 170.581V164.979H112.935C112.444 164.979 111.957 165.073 111.502 165.257M113.845 170.46H111.217C111.078 170.168 110.98 169.858 110.918 169.54C110.86 169.234 110.828 168.929 110.828 168.619C110.815 168.22 110.886 167.82 111.038 167.452C111.159 167.174 111.328 166.918 111.547 166.703C111.73 166.523 111.953 166.384 112.194 166.299C112.399 166.222 112.613 166.182 112.827 166.177H113.84V170.46H113.845ZM100.569 162.348L99.2437 163.946H101.894L100.569 162.348ZM105.067 163.946L103.742 162.348L102.416 163.946H105.067ZM66.1141 162.348L64.7888 163.946H67.4395L66.1141 162.348ZM102.153 160.49L100.828 162.088H103.479L102.153 160.49ZM105.799 170.46L104.5 170.446C104.264 170.446 104.027 170.392 103.813 170.289C103.63 170.199 103.474 170.06 103.367 169.885C103.251 169.697 103.171 169.49 103.126 169.27C103.072 169.019 103.05 168.758 103.05 168.498V165.935H101.377V169.423C101.399 169.692 101.35 169.966 101.229 170.208C101.091 170.375 100.877 170.464 100.663 170.442H99.9175C99.681 170.442 99.4445 170.388 99.2303 170.285C99.0473 170.195 98.8911 170.056 98.784 169.881C98.668 169.692 98.5877 169.486 98.543 169.266C98.4895 169.01 98.4672 168.754 98.4672 168.494V166.891H96.8116V169.423C96.8339 169.692 96.7848 169.966 96.6643 170.208C96.5215 170.379 96.3029 170.464 96.0842 170.442H82.8485C82.6119 170.455 82.371 170.41 82.1523 170.316C81.9694 170.226 81.8176 170.092 81.7061 169.921C81.5856 169.737 81.5008 169.535 81.4606 169.324C81.4071 169.077 81.3848 168.826 81.3848 168.57V164.97H79.7113V169.445C79.7158 169.643 79.6979 169.84 79.6533 170.029C79.6265 170.146 79.5551 170.253 79.4614 170.33C79.3588 170.397 79.2383 170.433 79.1178 170.437C78.9795 170.446 50.125 170.451 50.125 170.451V171.618H79.2071C79.5284 171.627 79.8452 171.582 80.1531 171.492C80.3852 171.42 80.6038 171.304 80.7868 171.142C80.9564 170.994 81.0858 170.805 81.1661 170.594C81.2509 170.37 81.3089 170.132 81.3357 169.894C81.4205 170.357 81.6391 170.788 81.9604 171.129C82.2192 171.394 82.5629 171.56 82.9333 171.596C82.9913 171.609 83.0493 171.618 83.1117 171.618H96.3029C96.6197 171.627 96.9366 171.582 97.2445 171.492C97.481 171.42 97.6952 171.299 97.8781 171.133C98.0432 170.976 98.1727 170.788 98.2574 170.577C98.3512 170.343 98.4136 170.101 98.4359 169.849C98.5163 170.321 98.7305 170.761 99.0562 171.115C99.3865 171.456 99.8461 171.64 100.319 171.618H100.886C101.453 171.676 102.019 171.501 102.452 171.133C102.773 170.779 102.974 170.33 103.019 169.854C103.099 170.325 103.313 170.765 103.639 171.12C103.969 171.461 104.429 171.645 104.902 171.622H107.486V164.974H105.799V170.455V170.46ZM121.873 170.46C121.431 170.491 121.007 170.289 120.753 169.93C120.512 169.504 120.396 169.019 120.423 168.53V164.979H118.736V171.286C118.745 171.757 118.705 172.228 118.615 172.695C118.562 172.996 118.441 173.283 118.263 173.535C118.12 173.728 117.924 173.867 117.696 173.939C117.442 174.015 117.178 174.047 116.911 174.042C116.79 174.042 116.652 174.033 116.487 174.02C116.331 174.006 116.179 173.975 116.032 173.921C116.009 174.056 115.974 174.181 115.929 174.311C116.201 174.486 116.496 174.621 116.804 174.715C117.116 174.814 117.442 174.864 117.767 174.864C118.138 174.864 118.504 174.787 118.843 174.63C119.182 174.464 119.472 174.217 119.686 173.903C119.945 173.521 120.128 173.095 120.231 172.646C120.369 172.049 120.436 171.434 120.423 170.819V169.858C120.494 170.334 120.708 170.774 121.034 171.124C121.279 171.385 121.605 171.551 121.962 171.6C122.069 171.613 122.181 171.622 122.288 171.627H149.853V170.46H121.868H121.873Z" fill="white"/>
<path d="M63.3883 76.2987L60.999 84.126L68.78 86.5295L71.1693 78.7022L63.3883 76.2987Z" fill="white"/>
<path d="M61.1442 57.2323L56.531 64.6387L80.8915 79.9929L85.5047 72.5866L61.1442 57.2323Z" fill="white"/>
<path d="M90.8982 97.684L84.179 102.305L88.7729 109.064L95.4922 104.443L90.8982 97.684Z" fill="white"/>
<path d="M95.0825 82.6006L67.9607 92.187L70.8409 100.433L97.9628 90.8464L95.0825 82.6006Z" fill="white"/>
<path d="M117.958 94.0213L117.359 102.187L125.477 102.79L126.076 94.6238L117.958 94.0213Z" fill="white"/>
<path d="M108.843 81.3192L99.3792 108.625L107.583 111.503L117.047 84.1964L108.843 81.3192Z" fill="white"/>
<path d="M137.495 64.4337L131.966 70.4424L137.939 76.0046L143.469 69.9958L137.495 64.4337Z" fill="white"/>
<path d="M123.763 65.0376L116.412 69.6963L131.735 94.1639L139.086 89.5053L123.763 65.0376Z" fill="white"/>
<path d="M129.204 35.3984L121.156 36.6284L122.379 44.7234L130.426 43.4934L129.204 35.3984Z" fill="white"/>
<path d="M113.07 47.8049L112.108 56.4912L140.678 59.6946L141.641 51.0083L113.07 47.8049Z" fill="white"/>
<path d="M93.423 25.0481L89.3618 32.144L96.4159 36.2293L100.477 29.1334L93.423 25.0481Z" fill="white"/>
<path d="M113.301 25L92.9985 45.4731L99.1497 51.6458L119.452 31.1726L113.301 25Z" fill="white"/>
<path d="M70.6428 43.7301L63.0696 46.731L66.0527 54.3492L73.626 51.3483L70.6428 43.7301Z" fill="white"/>
<path d="M84.0611 30.0799L75.4285 31.0693L78.6828 59.8016L87.3154 58.8122L84.0611 30.0799Z" fill="white"/>
<path d="M87.1725 126.355L83.5088 134.018L79.7826 126.355H78.1047L83.491 137.766L88.8549 126.355H87.1725Z" fill="white"/>
<path d="M97.9673 127.841C96.9498 126.746 95.5263 126.113 94.0046 126.113C91.0103 126.113 88.5737 128.564 88.5737 131.58C88.5737 134.597 91.0103 137.048 94.0046 137.048C95.5218 137.048 96.9498 136.415 97.9673 135.32V136.747H99.5604V121.247H97.9673V127.841ZM94.0046 135.427C91.8938 135.427 90.1802 133.704 90.1802 131.58C90.1802 129.457 91.8983 127.733 94.0046 127.733C96.1109 127.733 97.8289 129.461 97.8289 131.58C97.8289 133.699 96.1153 135.427 94.0046 135.427Z" fill="white"/>
<path d="M68.4345 126.113C66.9128 126.113 65.4892 126.746 64.4718 127.841V121.247H62.8787V136.747H64.4718V135.32C65.4892 136.415 66.9128 137.048 68.4345 137.048C71.4288 137.048 73.8653 134.597 73.8653 131.58C73.8653 128.564 71.4288 126.113 68.4345 126.113ZM68.4345 135.427C66.3237 135.427 64.6101 133.704 64.6101 131.58C64.6101 129.457 66.3237 127.733 68.4345 127.733C70.5452 127.733 72.2588 129.461 72.2588 131.58C72.2588 133.699 70.5408 135.427 68.4345 135.427Z" fill="white"/>
<path d="M76.8731 121.242H75.2666V136.743H76.8731V121.242Z" fill="white"/>
<path d="M116.255 126.077H112.515V136.743H116.255V126.077Z" fill="white"/>
<path d="M134.024 126.077L131.431 131.181L128.79 126.077H124.019V122.683H120.28V126.077H118.026V129.259H120.28V136.743H124.019V129.259H126.103L129.347 135.284L126.817 140.262H131.03L138.335 126.077H134.024Z" fill="white"/>
<path d="M114.385 119.703C113.202 119.703 112.247 120.663 112.247 121.853C112.247 123.042 113.207 124.003 114.385 124.003C115.563 124.003 116.522 123.042 116.522 121.853C116.522 120.663 115.563 119.703 114.385 119.703Z" fill="white"/>
<path d="M101.626 131.293C101.626 134.83 104.429 137.048 107.347 137.048C108.454 137.048 109.396 136.832 110.181 136.446V133.192C109.632 133.632 108.923 133.928 108.173 133.928C106.74 133.928 105.58 132.896 105.58 131.32C105.58 129.744 106.74 128.712 108.173 128.712C108.905 128.712 109.623 128.968 110.181 129.39V126.122C109.4 125.745 108.459 125.538 107.347 125.538C104.585 125.538 101.626 127.751 101.626 131.293Z" fill="white"/>
</svg>
