<svg width="200" height="200" viewBox="0 0 200 200" fill="none" xmlns="http://www.w3.org/2000/svg">
<rect width="200" height="200" fill="black"/>
<g clip-path="url(#clip0_4_19802)">
<path d="M82.8684 55.9122C82.1491 57.5748 81.6624 59.3623 81.447 61.2272H61.9271C62.2329 55.8304 63.6543 50.7265 65.9586 46.148L82.8641 55.9079L82.8684 55.9122ZM79.2288 31.2626C74.8442 34.1526 71.0798 37.9128 68.194 42.2974L85.0995 52.0574C86.2021 50.58 87.5114 49.2707 88.9888 48.168L79.2288 31.2626ZM98.1587 25C92.7618 25.3058 87.6579 26.7272 83.0794 29.0315L92.8394 45.9369C94.5019 45.2177 96.2894 44.7309 98.1544 44.5156V25M117.683 29.0315C113.104 26.7272 108.005 25.3058 102.604 25V44.5199C104.473 44.7353 106.256 45.2263 107.919 45.9413L117.679 29.0358M132.568 42.3017C129.678 37.9171 125.918 34.1526 121.533 31.2669L111.773 48.1723C113.251 49.275 114.56 50.5843 115.663 52.0617L132.568 42.3017ZM138.831 61.2316C138.525 55.8347 137.104 50.7308 134.799 46.1566L117.894 55.9166C118.613 57.5791 119.1 59.3666 119.315 61.2316H138.835M119.315 65.6851C118.213 75.1651 110.154 82.526 100.377 82.526C90.5997 82.526 82.541 75.1651 81.4384 65.6851H61.9271C63.0814 85.9243 79.8577 101.977 100.385 101.977C120.913 101.977 137.689 85.92 138.844 65.6851H119.324H119.315ZM53.0674 172.566V169.198H55.1908C56.3623 169.198 57.172 168.953 57.62 168.466C58.0679 167.979 58.2919 167.381 58.2919 166.679C58.2919 166.269 58.2101 165.89 58.0421 165.55C57.8741 165.206 57.6544 164.943 57.3788 164.749C57.1031 164.56 56.7629 164.43 56.358 164.361C56.0694 164.31 55.6473 164.284 55.096 164.284H51.9733V172.566H53.0674ZM53.0674 165.262H55.1865C55.6818 165.262 56.0263 165.287 56.2072 165.335C56.4915 165.412 56.7241 165.576 56.9007 165.826C57.0773 166.071 57.1634 166.369 57.1634 166.717C57.1634 167.195 57.0127 167.566 56.7155 167.829C56.4183 168.091 55.9144 168.225 55.208 168.225H53.0674V165.266V165.262ZM59.9588 171.895C60.4756 172.433 61.1561 172.704 61.996 172.704C62.5215 172.704 63.0039 172.584 63.4432 172.338C63.8869 172.093 64.2228 171.748 64.4554 171.309C64.688 170.865 64.8043 170.258 64.8043 169.487C64.8043 168.535 64.5415 167.786 64.0204 167.247C63.4949 166.709 62.823 166.437 61.996 166.437C61.2552 166.437 60.6264 166.661 60.1095 167.105C59.4936 167.639 59.1835 168.462 59.1835 169.573C59.1835 170.585 59.4419 171.36 59.9588 171.899V171.895ZM60.7297 167.846C61.0657 167.467 61.4878 167.277 61.996 167.277C62.5043 167.277 62.9178 167.467 63.2537 167.85C63.5897 168.234 63.7576 168.793 63.7576 169.539C63.7576 170.327 63.5897 170.913 63.2537 171.296C62.9178 171.679 62.5 171.873 61.9917 171.873C61.4835 171.873 61.0614 171.684 60.7254 171.3C60.3895 170.917 60.2215 170.344 60.2215 169.573C60.2215 168.802 60.3895 168.229 60.7254 167.85L60.7297 167.846ZM68.1638 172.571L69.3784 167.954L69.611 168.974L70.5672 172.566H71.6225L73.4961 166.567H72.5097L71.4803 170.034L71.1357 171.193L70.8342 170.047L69.9341 166.567H68.8874L67.9312 170.081C67.7374 170.844 67.6341 171.253 67.6211 171.317L67.2636 170.03L66.3075 166.567H65.2565L67.0914 172.566H68.1552L68.1638 172.571ZM77.829 171.576C77.5663 171.77 77.2476 171.869 76.8728 171.869C76.3732 171.869 75.9554 171.692 75.6195 171.343C75.2835 170.994 75.0983 170.49 75.0595 169.827H79.5346C79.5346 169.707 79.539 169.616 79.539 169.556C79.539 168.565 79.2848 167.798 78.7766 167.251C78.2684 166.704 77.6137 166.433 76.8125 166.433C76.0114 166.433 75.3094 166.713 74.7882 167.269C74.267 167.824 74.0086 168.608 74.0086 169.62C74.0086 170.633 74.267 171.356 74.7796 171.895C75.2921 172.437 75.9899 172.704 76.8685 172.704C77.5663 172.704 78.1391 172.536 78.5871 172.196C79.035 171.856 79.3408 171.382 79.5088 170.766L78.4579 170.637C78.3028 171.068 78.0961 171.378 77.829 171.576ZM75.6453 167.738C75.964 167.424 76.356 167.269 76.8212 167.269C77.338 167.269 77.7558 167.463 78.0831 167.854C78.2942 168.109 78.4234 168.483 78.4665 168.992H75.1155C75.15 168.466 75.3266 168.048 75.6453 167.738ZM81.7873 172.566V169.427C81.7873 168.996 81.8433 168.6 81.9553 168.242C82.0285 168.005 82.1577 167.82 82.3343 167.687C82.5109 167.553 82.709 167.484 82.933 167.484C83.1828 167.484 83.4283 167.557 83.6781 167.704L84.027 166.76C83.6738 166.541 83.3249 166.433 82.9803 166.433C82.7435 166.433 82.5238 166.502 82.33 166.636C82.1318 166.769 81.9165 167.053 81.6839 167.475V166.567H80.7708V172.566H81.7873ZM88.1144 171.572C87.8517 171.765 87.533 171.864 87.1583 171.864C86.6586 171.864 86.2408 171.688 85.9049 171.339C85.5689 170.99 85.3837 170.486 85.345 169.823H89.8201C89.8201 169.702 89.8244 169.612 89.8244 169.551C89.8244 168.561 89.5703 167.794 89.062 167.247C88.5538 166.7 87.8991 166.429 87.098 166.429C86.2968 166.429 85.5948 166.709 85.0736 167.264C84.5524 167.82 84.294 168.604 84.294 169.616C84.294 170.628 84.5524 171.352 85.065 171.89C85.5775 172.433 86.2753 172.7 87.154 172.7C87.8517 172.7 88.4246 172.532 88.8725 172.192C89.3204 171.851 89.6262 171.378 89.7942 170.762L88.7433 170.633C88.5882 171.063 88.3815 171.373 88.1144 171.572ZM85.9307 167.734C86.2495 167.419 86.6414 167.264 87.1066 167.264C87.6234 167.264 88.0412 167.458 88.3686 167.85C88.5796 168.104 88.7088 168.479 88.7519 168.987H85.401C85.4354 168.462 85.612 168.044 85.9307 167.734ZM95.906 172.562V164.28H94.8939V167.251C94.7173 167.006 94.489 166.808 94.2047 166.657C93.9204 166.506 93.6017 166.429 93.2399 166.429C92.7446 166.429 92.301 166.558 91.9004 166.816C91.4998 167.075 91.2027 167.45 91.0002 167.936C90.8021 168.423 90.6987 168.966 90.6987 169.564C90.6987 170.163 90.8107 170.723 91.0304 171.193C91.25 171.666 91.5601 172.032 91.9607 172.295C92.3613 172.558 92.8006 172.691 93.2787 172.691C94.0152 172.691 94.5751 172.394 94.9585 171.8V172.558H95.9017L95.906 172.562ZM92.2019 167.824C92.5034 167.454 92.8824 167.269 93.3347 167.269C93.7869 167.269 94.1875 167.463 94.5062 167.846C94.8206 168.229 94.98 168.832 94.98 169.655C94.98 170.4 94.8249 170.956 94.5148 171.317C94.2047 171.679 93.8257 171.864 93.3821 171.864C92.9384 171.864 92.5594 171.675 92.2364 171.292C91.9133 170.913 91.7497 170.335 91.7497 169.569C91.7497 168.802 91.9004 168.19 92.2062 167.824H92.2019ZM101.656 171.813C102.061 172.403 102.612 172.7 103.323 172.7C104.034 172.7 104.645 172.42 105.153 171.86C105.662 171.3 105.916 170.503 105.916 169.474C105.916 169.039 105.855 168.634 105.735 168.255C105.614 167.876 105.446 167.549 105.235 167.282C105.024 167.015 104.753 166.804 104.421 166.653C104.09 166.502 103.741 166.429 103.375 166.429C102.707 166.429 102.16 166.7 101.729 167.239V164.284H100.713V172.566H101.656V171.817V171.813ZM102.13 167.846C102.453 167.458 102.836 167.269 103.284 167.269C103.732 167.269 104.098 167.454 104.413 167.829C104.723 168.203 104.878 168.781 104.878 169.564C104.878 170.348 104.714 170.904 104.391 171.292C104.068 171.679 103.685 171.869 103.237 171.869C102.69 171.869 102.259 171.606 101.936 171.085C101.742 170.766 101.643 170.245 101.643 169.526C101.643 168.806 101.807 168.238 102.13 167.85V167.846ZM107.764 175C108.087 175 108.367 174.922 108.599 174.767C108.832 174.612 109.038 174.367 109.219 174.031C109.353 173.781 109.547 173.329 109.788 172.67L112.071 166.567H111.054L109.771 170.064C109.607 170.508 109.469 170.964 109.353 171.429C109.224 170.943 109.082 170.482 108.918 170.038L107.669 166.562H106.575L108.853 172.575C108.81 172.683 108.78 172.769 108.763 172.825C108.621 173.23 108.517 173.48 108.453 173.583C108.367 173.721 108.255 173.824 108.121 173.902C107.983 173.975 107.807 174.014 107.578 174.014C107.41 174.014 107.221 173.984 106.997 173.923L107.109 174.879C107.35 174.961 107.57 175.004 107.764 175.004V175ZM123.984 161.428C124.557 162.247 125.005 163.104 125.294 164.043C125.909 162.651 126.995 161.523 128.36 160.855C129.747 161.51 130.811 162.651 131.423 164.043C131.707 163.104 132.15 162.221 132.732 161.428C131.668 159.96 130.118 158.853 128.321 158.241C126.599 158.857 125.091 159.964 123.989 161.428M123.989 161.428C124.561 162.247 125.009 163.104 125.298 164.043C125.914 162.651 126.999 161.523 128.365 160.855C129.751 161.51 130.815 162.651 131.427 164.043C131.711 163.104 132.155 162.221 132.736 161.428C131.672 159.96 130.122 158.853 128.326 158.241C126.603 158.857 125.095 159.964 123.993 161.428M118.803 172.054C120.401 172.627 122.089 172.915 123.79 172.911C126.612 172.911 128.042 172.218 128.042 170.706C128.042 169.073 126.284 168.703 123.588 168.501C121.46 168.337 120.603 168.134 120.603 167.316C120.603 166.661 121.258 166.334 122.89 166.334C124.523 166.334 126.116 166.7 127.632 167.316C127.55 166.786 127.55 166.252 127.632 165.722C126.112 165.313 124.548 165.107 122.972 165.111C120.112 165.111 118.721 165.809 118.721 167.359C118.721 168.91 120.271 169.319 122.847 169.526C125.177 169.728 126.159 169.81 126.159 170.71C126.159 171.404 125.505 171.731 123.954 171.731C122.037 171.731 119.789 171.283 118.807 170.383C118.889 170.938 118.889 171.503 118.807 172.058M131.272 166.666C133.072 168.669 134.786 170.71 136.462 172.838H138.995C138.874 170.344 138.874 167.811 138.956 165.279C138.331 165.361 137.698 165.361 137.078 165.279C137.16 167.325 137.198 169.405 137.16 171.49C135.402 169.448 133.727 167.363 132.095 165.279C131.237 165.361 130.376 165.361 129.519 165.279C129.601 167.773 129.601 170.305 129.519 172.838H131.358C131.276 170.796 131.237 168.712 131.276 166.666M142.638 171.653C142.595 170.999 142.595 170.262 142.595 169.569H145.494C147.29 169.569 147.781 169.935 147.781 170.551C147.781 171.167 147.29 171.696 145.412 171.696C144.103 171.696 143.491 171.696 142.634 171.658M145.498 168.591C144.477 168.591 143.495 168.552 142.595 168.591C142.557 167.816 142.595 167.079 142.595 166.425H145.494C146.722 166.425 147.415 166.752 147.415 167.488C147.415 168.225 146.76 168.591 145.494 168.591M140.752 165.24C140.872 167.118 140.872 170.921 140.752 172.799C142.182 172.799 143.121 172.838 145.33 172.838C147.213 172.838 149.784 172.635 149.784 170.796C149.784 169.487 148.518 168.957 146.842 168.918V168.793C148.19 168.755 149.293 168.264 149.293 167.079C149.293 165.77 147.945 165.201 145.494 165.201C143.491 165.201 142.182 165.24 140.752 165.24ZM123.95 137.907C128.02 137.907 131.324 141.206 131.324 145.277C131.324 149.347 128.024 152.65 123.95 152.65C119.875 152.65 116.576 149.351 116.576 145.277C116.576 141.202 119.875 137.907 123.95 137.907ZM123.95 149.317C126.177 149.317 127.986 147.508 127.986 145.281C127.986 143.054 126.177 141.245 123.95 141.245C121.723 141.245 119.914 143.054 119.914 145.281C119.914 147.508 121.723 149.317 123.95 149.317ZM74.5814 117.452H71.2305V131.722H74.5814V117.452ZM87.2832 131.718H90.6341V125.95L95.8673 117.452H92.1459L88.9629 123.138L85.7757 117.452H82.0543L87.2875 125.95V131.718H87.2832ZM131.156 124.585C131.156 129.362 127.848 131.718 123.338 131.718H118.501V117.448H123.338C127.826 117.448 131.156 119.826 131.156 124.581M121.831 128.879H123.528C126.177 128.879 127.766 127.225 127.766 124.581C127.766 121.936 126.237 120.218 123.528 120.218H121.831V128.879ZM146.433 117.444V122.966H140.704V117.444H137.354V131.713H140.704V125.739H146.433V131.713H149.784V117.444H146.433ZM58.5202 144.157C58.0636 143.971 57.0127 143.597 56.3881 143.351C55.7464 143.101 54.941 142.774 54.941 141.904C54.941 141.034 55.7248 140.621 56.8016 140.621C57.8784 140.621 59.1576 141.241 59.9846 142.068L61.4103 139.729C60.4368 138.756 58.5374 137.972 56.8835 137.972C55.2295 137.972 53.9288 138.428 53.119 139.109C52.2921 139.789 51.6288 140.866 51.6288 142.231C51.6288 143.597 52.1241 144.402 52.7443 144.984C53.3645 145.582 54.0881 145.854 54.4413 146.017C54.9151 146.224 55.9919 146.599 56.6121 146.823C57.2323 147.051 58.2876 147.421 58.2876 148.395C58.2876 149.368 57.4606 149.864 56.3838 149.864C55.3071 149.864 53.6962 149.14 52.6625 148.063L51.0085 150.505C52.1672 151.582 54.0063 152.655 56.0737 152.655C58.8432 152.655 61.617 151.143 61.617 148.063C61.617 145.996 60.3335 144.816 58.5159 144.157M70.9936 146.392H76.5756V143.726H70.9936V140.81H76.9073V138.144H67.6642V152.413H77.0925V149.704H70.9936V146.396V146.392ZM108.177 144.157C107.72 143.971 106.67 143.597 106.045 143.351C105.403 143.101 104.598 142.774 104.598 141.904C104.598 141.034 105.382 140.621 106.458 140.621C107.535 140.621 108.814 141.241 109.641 142.068L111.067 139.729C110.094 138.756 108.194 137.972 106.54 137.972C104.886 137.972 103.586 138.428 102.776 139.109C101.949 139.789 101.286 140.866 101.286 142.231C101.286 143.597 101.781 144.402 102.401 144.984C103.021 145.582 103.745 145.854 104.098 146.017C104.576 146.224 105.649 146.599 106.269 146.823C106.889 147.051 107.944 147.421 107.944 148.395C107.944 149.368 107.117 149.864 106.041 149.864C104.964 149.864 103.353 149.14 102.319 148.063L100.665 150.505C101.824 151.582 103.663 152.655 105.731 152.655C108.5 152.655 111.274 151.143 111.274 148.063C111.274 145.996 109.99 144.816 108.173 144.157M146.506 144.613C146.506 146.125 146.566 147.736 146.566 147.736L140.446 138.144H136.867V152.413H140.136V145.961C140.136 144.454 140.076 142.735 140.076 142.735L146.342 152.413H149.775V138.144H146.51V144.618L146.506 144.613ZM62.7928 121.721C62.7928 124.43 61.0571 125.485 60.0018 125.813L63.6198 131.705H59.7305L56.7327 126.248H55.32V131.705H51.9733V117.44H57.4606C60.1913 117.44 62.7972 118.598 62.7972 121.721M56.9868 123.685C58.2273 123.685 59.4247 123.314 59.4247 121.846C59.4247 120.377 58.2273 120.024 56.9868 120.024H55.3071V123.685H56.9868ZM107.294 117.44L113.018 131.709H109.379L108.328 128.858H102.621L101.57 131.709H98.0984L103.823 117.44H107.298H107.294ZM107.367 126.248L105.476 121.122L103.586 126.248H107.367ZM90.6901 138.135L96.4143 152.405H92.7748L91.7238 149.553H86.0169L84.9659 152.405H81.4944L87.2186 138.135H90.6944H90.6901ZM90.7633 146.943L88.8725 141.818L86.9817 146.943H90.7633Z" fill="white"/>
</g>
<defs>
<clipPath id="clip0_4_19802">
<rect width="98.771" height="150" fill="white" transform="translate(51 25)"/>
</clipPath>
</defs>
</svg>
