<svg width="131" height="135" viewBox="0 0 131 135" fill="none" xmlns="http://www.w3.org/2000/svg">
<path d="M131 0H0V135H131V0Z" fill="#F6E71B"/>
<path d="M44.8816 62.7038L38.7329 67.9751H22.0021L16.0146 62.7038V22.78L22.0021 17.4758H38.7329L44.8816 22.8115V30.5899H35.4967V26.7965H25.3995V58.6518H35.4967V54.5697H44.8816V62.7025V62.7038Z" fill="black"/>
<path d="M79.6702 67.9751H69.6061L61.6127 47.4029H58.8297V67.9751H49.4131V17.4758H71.9688L77.9563 22.78V41.3269L71.5486 47.2743L79.6715 67.9751H79.6702ZM58.8297 38.0494H68.5701V26.7663H58.8297V38.0494Z" fill="black"/>
<path d="M87.6514 68.0553H98.2916L114.972 26.6431H104.333L87.6514 68.0553Z" fill="black"/>
<path d="M81.418 26.6429H104.333L107.902 17.5505H84.9872L81.418 26.6429Z" fill="black"/>
<path d="M114.174 78.1858H15.21V78.7108H114.174V78.1858Z" fill="#151515"/>
<path d="M114.372 78.9078H15.0117V77.989H114.372V78.9078ZM15.4082 78.5141H113.976V78.3828H15.4082V78.5141Z" fill="black"/>
<path d="M108.621 65.3671C108.621 63.7474 109.784 62.5359 111.428 62.5359C113.072 62.5359 114.221 63.7474 114.221 65.3671C114.221 66.9869 113.059 68.184 111.428 68.184C109.797 68.184 108.621 66.9869 108.621 65.3671ZM109.131 65.3671C109.131 66.7336 110.039 67.7193 111.428 67.7193C112.817 67.7193 113.71 66.7336 113.71 65.3671C113.71 64.0007 112.802 63.015 111.428 63.015C110.054 63.015 109.131 64.0007 109.131 65.3671ZM111.91 65.6349L112.761 66.8464L112.038 66.8609L111.259 65.6638H110.932V66.8609H110.323V63.8327H111.642C112.266 63.8327 112.662 64.1845 112.662 64.7476C112.662 65.2267 112.378 65.5509 111.91 65.6349ZM110.932 64.3814V65.1558H111.598C111.853 65.1558 112.052 65.0429 112.052 64.762C112.052 64.4812 111.853 64.3814 111.598 64.3814H110.932Z" fill="black"/>
<path d="M24.2646 97.6502C24.2646 98.6582 23.8999 99.5258 23.1691 100.25C22.4384 100.976 21.5662 101.339 20.5513 101.339H18.6947C17.6798 101.339 16.8064 100.979 16.0769 100.26C15.3462 99.5403 14.9814 98.67 14.9814 97.6502H16.8381C16.8381 98.1542 17.0204 98.5873 17.3865 98.9509C17.7512 99.3132 18.1873 99.4957 18.696 99.4957H20.5527C21.0601 99.4957 21.4962 99.3145 21.8622 98.9509C22.2269 98.5887 22.4093 98.1555 22.4093 97.6502C22.4093 97.1448 22.2269 96.713 21.8622 96.3494C21.4975 95.9871 21.0601 95.806 20.5527 95.806H18.696C17.6812 95.806 16.8077 95.4437 16.0782 94.7178C15.3475 93.992 14.9828 93.1256 14.9828 92.1176C14.9828 91.1095 15.3475 90.2432 16.0782 89.5173C16.809 88.7915 17.6812 88.4292 18.696 88.4292H20.5527C21.5675 88.4292 22.4397 88.7915 23.1704 89.5173C23.9012 90.2432 24.2659 91.1095 24.2659 92.1176H22.4093C22.4093 91.6135 22.2269 91.1804 21.8622 90.8168C21.4975 90.4545 21.0601 90.2734 20.5527 90.2734H18.696C18.1886 90.2734 17.7525 90.4545 17.3865 90.8168C17.0218 91.1791 16.8381 91.6135 16.8381 92.1176C16.8381 92.6216 17.0204 93.0548 17.3865 93.4184C17.7512 93.7806 18.1873 93.9631 18.696 93.9631H20.5527C21.5675 93.9631 22.4397 94.3254 23.1704 95.0512C23.9012 95.7771 24.2659 96.6434 24.2659 97.6515L24.2646 97.6502Z" fill="black"/>
<path d="M32.2252 101.34H26.6553V99.4957H28.5119V93.9631H26.6553V92.1189H30.3685V99.4957H32.2252V101.34ZM30.3685 89.3519C30.3685 89.6105 30.2787 89.8284 30.099 90.0069C29.9192 90.1854 29.6999 90.2747 29.4396 90.2747C29.1792 90.2747 28.9599 90.1854 28.7802 90.0069C28.6004 89.8284 28.5106 89.6105 28.5106 89.3519C28.5106 89.0934 28.6004 88.8755 28.7802 88.697C28.9599 88.5185 29.1792 88.4292 29.4396 88.4292C29.6999 88.4292 29.9192 88.5185 30.099 88.697C30.2787 88.8755 30.3685 89.0934 30.3685 89.3519Z" fill="black"/>
<path d="M43.2363 101.34C43.2363 102.348 42.8715 103.212 42.1408 103.931C41.41 104.65 40.5379 105.01 39.523 105.01H35.8098V103.166H39.523C40.0304 103.166 40.4665 102.985 40.8326 102.622C41.1973 102.26 41.3796 101.832 41.3796 101.341H37.6664C36.6515 101.341 35.778 100.979 35.0486 100.253C34.3178 99.5273 33.9531 98.661 33.9531 97.6529V95.8087C33.9531 94.8007 34.3178 93.9344 35.0486 93.2085C35.7794 92.4826 36.6515 92.1204 37.6664 92.1204H43.2363V101.341V101.34ZM41.3796 99.4958V93.9632H37.6664C37.1589 93.9632 36.7229 94.1444 36.3568 94.5067C35.9908 94.8689 35.8084 95.3034 35.8084 95.8074V97.6516C35.8084 98.1557 35.9908 98.5888 36.3568 98.9524C36.7215 99.3147 37.1576 99.4971 37.6664 99.4971H41.3796V99.4958Z" fill="black"/>
<path d="M47.0812 92.1177V94.6444L48.2507 93.5012C49.1797 92.5784 50.0267 92.1177 50.7945 92.1177C51.8213 92.1177 52.6974 92.4773 53.4215 93.1966C54.1457 93.9159 54.5078 94.7862 54.5078 95.8061V101.339H52.6511V95.8061C52.6511 95.302 52.4688 94.8689 52.104 94.5053C51.7393 94.143 51.3019 93.9619 50.7945 93.9619C50.1761 93.9619 49.5563 94.269 48.9379 94.8846L47.0812 96.7288V101.34H45.2246V92.119H47.0812V92.1177Z" fill="black"/>
<path d="M65.6484 92.1177V101.339H63.7917V98.7935L62.6408 99.9552C61.7118 100.878 60.8581 101.339 60.0785 101.339C59.0504 101.339 58.1756 100.979 57.4515 100.26C56.7273 99.5404 56.3652 98.6701 56.3652 97.6503V95.8061C56.3652 94.7862 56.7273 93.9159 57.4515 93.1966C58.1756 92.4773 59.0517 92.1177 60.0785 92.1177H65.6484ZM60.0785 93.9619C59.5711 93.9619 59.135 94.143 58.7689 94.5053C58.4042 94.8676 58.2205 95.302 58.2205 95.8061V97.6503C58.2205 98.1543 58.4029 98.5874 58.7689 98.951C59.1337 99.3133 59.5697 99.4958 60.0785 99.4958C60.6969 99.4958 61.3167 99.1886 61.9351 98.573L63.7917 96.7288V93.9619H60.0785Z" fill="black"/>
<path d="M75.1677 101.34H73.3111C72.2962 101.34 71.4241 100.978 70.6933 100.252C69.9626 99.526 69.5978 98.6597 69.5978 97.6516V93.9632H67.7412V92.119H69.5978V88.4307H71.4545V92.119H73.3111V93.9632H71.4545V97.6516C71.4545 98.1557 71.6368 98.5888 72.0029 98.9524C72.3676 99.3147 72.8037 99.4971 73.3111 99.4971H75.1677V101.341V101.34Z" fill="black"/>
<path d="M84.4509 101.34V98.7947L83.2999 99.9564C82.371 100.879 81.5173 101.34 80.7377 101.34C79.7096 101.34 78.8348 100.98 78.1106 100.261C77.3865 99.5416 77.0244 98.6714 77.0244 97.6515V92.1189H78.881V97.6515C78.881 98.1555 79.0634 98.5887 79.4294 98.9522C79.7942 99.3145 80.2302 99.497 80.739 99.497C81.3574 99.497 81.9772 99.1898 82.5956 98.5742L84.4523 96.73V92.1189H86.3089V101.34H84.4523H84.4509Z" fill="black"/>
<path d="M90.0207 92.1177V94.6444L91.1902 93.5012C92.1191 92.5784 92.9662 92.1177 93.734 92.1177C94.7607 92.1177 95.6368 92.4773 96.361 93.1966C97.0851 93.9159 97.4472 94.7862 97.4472 95.8061H95.5906C95.5906 95.302 95.4082 94.8689 95.0435 94.5053C94.6788 94.143 94.2414 93.9619 93.734 93.9619C93.1155 93.9619 92.4958 94.269 91.8773 94.8846L90.0207 96.7288V101.34H88.1641V92.119H90.0207V92.1177Z" fill="black"/>
<path d="M108.19 101.34H102.62C101.606 101.34 100.732 100.978 100.003 100.252C99.272 99.5259 98.9072 98.6595 98.9072 97.6515V95.8073C98.9072 94.7992 99.272 93.9329 100.003 93.207C100.733 92.4812 101.606 92.1189 102.62 92.1189H104.477C105.492 92.1189 106.364 92.4812 107.095 93.207C107.826 93.9329 108.19 94.7992 108.19 95.8073V97.6515H100.764C100.764 98.1555 100.946 98.5887 101.312 98.9522C101.677 99.3145 102.113 99.497 102.622 99.497H108.192V101.341L108.19 101.34ZM106.334 95.8073C106.334 95.3032 106.151 94.8701 105.787 94.5065C105.422 94.1442 104.985 93.9631 104.477 93.9631H102.62C102.113 93.9631 101.677 94.1442 101.311 94.5065C100.946 94.8688 100.763 95.3032 100.763 95.8073H106.332H106.334Z" fill="black"/>
<path d="M24.2646 119.224H22.408V109.542L20.5513 111.387V113.691H18.6947V111.387L16.8381 109.542V119.224H14.9814V106.315H16.3742L19.6237 109.542L22.8731 106.315H24.2659V119.224H24.2646Z" fill="black"/>
<path d="M33.5476 119.224V116.679L32.3966 117.841C31.4677 118.763 30.614 119.224 29.8344 119.224C28.8063 119.224 27.9315 118.864 27.2073 118.145C26.4832 117.426 26.1211 116.555 26.1211 115.536V110.003H27.9777V115.536C27.9777 116.04 28.1601 116.473 28.5261 116.835C28.8908 117.197 29.3269 117.38 29.8357 117.38C30.4541 117.38 31.0739 117.073 31.6923 116.457L33.5489 114.613V110.002H35.4056V119.223H33.5489L33.5476 119.224Z" fill="black"/>
<path d="M46.5439 110.003V111.847H41.6797C41.0361 111.847 40.4877 111.936 40.0371 112.115C39.5852 112.293 39.3592 112.511 39.3592 112.77C39.3592 113.028 39.5852 113.246 40.0371 113.425C40.489 113.603 41.0361 113.693 41.6797 113.693H42.1435C43.2945 113.693 44.2789 113.963 45.0956 114.504C45.9122 115.045 46.3206 115.697 46.3206 116.458C46.3206 117.22 45.9122 117.872 45.0956 118.413C44.2789 118.953 43.2945 119.224 42.1435 119.224H37.2607V117.38H42.1435C42.7751 117.38 43.3196 117.29 43.7768 117.112C44.234 116.933 44.4639 116.716 44.4639 116.457C44.4639 116.198 44.2353 115.98 43.7768 115.802C43.3182 115.623 42.7738 115.534 42.1435 115.534H41.6797C40.5155 115.534 39.5283 115.264 38.7183 114.723C37.9069 114.182 37.5026 113.531 37.5026 112.769C37.5026 112.006 37.9082 111.355 38.7183 110.814C39.5283 110.273 40.5155 110.003 41.6797 110.003H46.5439Z" fill="black"/>
<path d="M57.6845 119.224H52.1146C51.0998 119.224 50.2263 118.862 49.4968 118.136C48.7661 117.41 48.4014 116.544 48.4014 115.536V113.691C48.4014 112.683 48.7661 111.817 49.4968 111.091C50.2276 110.365 51.0998 110.003 52.1146 110.003H53.9713C54.9861 110.003 55.8583 110.365 56.589 111.091C57.3198 111.817 57.6845 112.683 57.6845 113.691V115.536H50.258C50.258 116.04 50.4404 116.473 50.8064 116.835C51.1711 117.197 51.6072 117.38 52.1159 117.38H57.6858V119.224H57.6845ZM55.8279 113.691C55.8279 113.187 55.6455 112.754 55.2808 112.392C54.9161 112.03 54.4787 111.847 53.9713 111.847H52.1146C51.6072 111.847 51.1711 112.028 50.8051 112.392C50.4404 112.754 50.2567 113.189 50.2567 113.691H55.8266H55.8279Z" fill="black"/>
<path d="M66.9685 119.224V116.679L65.8175 117.841C64.8886 118.763 64.0349 119.224 63.2552 119.224C62.2272 119.224 61.3524 118.864 60.6282 118.145C59.9041 117.426 59.542 116.555 59.542 115.536V110.003H61.3986V115.536C61.3986 116.04 61.581 116.473 61.947 116.835C62.3117 117.197 62.7478 117.38 63.2566 117.38C63.875 117.38 64.4948 117.073 65.1132 116.457L66.9698 114.613V110.002H68.8265V119.223H66.9698L66.9685 119.224Z" fill="black"/>
<path d="M79.9648 119.224H78.1082V113.691C78.1082 113.187 77.9258 112.754 77.5611 112.392C77.1964 112.03 76.759 111.847 76.2515 111.847V119.224H74.3949V111.847H72.5383V119.224H70.6816V110.003H76.2515C77.2664 110.003 78.1386 110.365 78.8693 111.091C79.6001 111.817 79.9648 112.683 79.9648 113.691V119.224Z" fill="black"/>
</svg>
