<svg width="320" height="75" viewBox="0 0 320 75" fill="none" xmlns="http://www.w3.org/2000/svg">
<g clip-path="url(#clip0_107_10524)">
<path d="M34.4841 61.9721L27.1394 68.3547H7.15085L0 61.9721V13.641L7.15085 7.22083H27.1369L34.4817 13.681V23.0985H23.2719V18.5074H11.2097V57.0707H23.2719V52.1293H34.4817V61.9746L34.4841 61.9721Z" fill="white"/>
<path d="M76.04 68.3547H64.0175L54.4682 43.4498H51.1425V68.3547H39.8931V7.22083H66.8386L73.9895 13.641V36.0939L66.3341 43.2922L76.0375 68.3522L76.04 68.3547ZM51.145 32.1257H62.7822V18.4673H51.145V32.1257Z" fill="white"/>
<path d="M85.5762 68.4523H98.2871L118.214 18.3197H105.503L85.5762 68.4523Z" fill="#F6E71B"/>
<path d="M78.1304 18.3196H105.503L109.769 7.31079H82.3955L78.1304 18.3196Z" fill="#F6E71B"/>
<path fill-rule="evenodd" clip-rule="evenodd" d="M140.442 75H142.182V0H140.442V75Z" fill="white"/>
<path d="M110.625 65.1971C110.625 63.2356 112.014 61.7694 113.978 61.7694C115.942 61.7694 117.314 63.2356 117.314 65.1971C117.314 67.1587 115.924 68.6074 113.978 68.6074C112.032 68.6074 110.625 67.1587 110.625 65.1971ZM111.234 65.1971C111.234 66.851 112.318 68.0444 113.978 68.0444C115.638 68.0444 116.705 66.851 116.705 65.1971C116.705 63.5433 115.621 62.3499 113.978 62.3499C112.335 62.3499 111.234 63.5433 111.234 65.1971ZM114.555 65.5199L115.571 66.9861L114.706 67.0036L113.774 65.5549H113.384V67.0036H112.656V63.3382H114.231C114.977 63.3382 115.452 63.7635 115.452 64.4465C115.452 65.027 115.114 65.4173 114.555 65.5199ZM113.386 64.0037V64.9419H114.182C114.488 64.9419 114.724 64.8043 114.724 64.4641C114.724 64.1238 114.488 64.0037 114.182 64.0037H113.386Z" fill="#F6E71B"/>
<path d="M175.742 26.8014C175.742 28.5503 175.116 30.054 173.868 31.3126C172.618 32.5711 171.124 33.1991 169.387 33.1991H166.208C164.47 33.1991 162.976 32.5761 161.726 31.3276C160.476 30.0791 159.852 28.5704 159.852 26.7989H163.031C163.031 27.6746 163.344 28.4252 163.968 29.0557C164.592 29.6863 165.34 29.999 166.21 29.999H169.389C170.256 29.999 171.005 29.6838 171.631 29.0557C172.255 28.4277 172.568 27.6746 172.568 26.7989C172.568 25.9232 172.255 25.1726 171.631 24.5421C171.005 23.9141 170.259 23.5989 169.389 23.5989H166.21C164.473 23.5989 162.979 22.9709 161.729 21.7124C160.478 20.4539 159.855 18.9502 159.855 17.2013C159.855 15.4524 160.478 13.9487 161.729 12.6902C162.979 11.4317 164.473 10.8011 166.21 10.8011H169.389C171.126 10.8011 172.62 11.4317 173.87 12.6902C175.121 13.9487 175.744 15.4524 175.744 17.2013H172.566C172.566 16.3281 172.252 15.575 171.628 14.9445C171.002 14.3165 170.256 14.0012 169.387 14.0012H166.208C165.338 14.0012 164.592 14.3165 163.966 14.9445C163.339 15.575 163.029 16.3256 163.029 17.2013C163.029 18.077 163.342 18.8276 163.966 19.4581C164.589 20.0886 165.338 20.4013 166.208 20.4013H169.387C171.124 20.4013 172.618 21.0318 173.868 22.2878C175.118 23.5463 175.742 25.05 175.742 26.7989V26.8014Z" fill="white"/>
<path d="M189.369 33.2016H179.835V30.0015H183.014V20.4038H179.835V17.2038H186.193V30.0015H189.372V33.2016H189.369ZM186.19 12.4049C186.19 12.8528 186.036 13.2306 185.731 13.5408C185.422 13.8511 185.047 14.0037 184.602 14.0037C184.157 14.0037 183.782 13.8486 183.474 13.5408C183.166 13.2331 183.014 12.8528 183.014 12.4049C183.014 11.9571 183.168 11.5793 183.474 11.269C183.779 10.9588 184.157 10.8062 184.602 10.8062C185.047 10.8062 185.422 10.9613 185.731 11.269C186.036 11.5793 186.19 11.9571 186.19 12.4049Z" fill="white"/>
<path d="M208.222 33.2016C208.222 34.9505 207.596 36.4492 206.348 37.6977C205.098 38.9462 203.604 39.5692 201.866 39.5692H195.509V36.3691H201.866C202.734 36.3691 203.482 36.0539 204.108 35.4259C204.732 34.7954 205.045 34.0548 205.045 33.2016H198.688C196.95 33.2016 195.456 32.5736 194.206 31.3151C192.956 30.0566 192.332 28.5529 192.332 26.804V23.6039C192.332 21.855 192.956 20.3513 194.206 19.0928C195.456 17.8343 196.95 17.2063 198.688 17.2063H208.222V33.2041V33.2016ZM205.043 30.0015V20.4039H198.685C197.815 20.4039 197.069 20.7191 196.443 21.3471C195.817 21.9776 195.506 22.7282 195.506 23.6039V26.804C195.506 27.6797 195.819 28.4303 196.443 29.0608C197.067 29.6913 197.815 30.004 198.685 30.004H205.043V30.0015Z" fill="white"/>
<path d="M214.826 17.2012V21.5847L216.83 19.6006C218.418 18.0018 219.87 17.2012 221.184 17.2012C222.944 17.2012 224.443 17.8242 225.683 19.0727C226.923 20.3212 227.542 21.8299 227.542 23.6013V33.199H224.363V23.6013C224.363 22.7281 224.05 21.975 223.426 21.3445C222.8 20.7165 222.054 20.4012 221.184 20.4012C220.126 20.4012 219.064 20.9342 218.005 22L214.826 25.2001V33.199H211.647V17.2012H214.826Z" fill="white"/>
<path d="M246.611 17.2012V33.199H243.432V28.783L241.461 30.7996C239.873 32.3984 238.409 33.199 237.074 33.199C235.315 33.199 233.816 32.576 232.575 31.3275C231.335 30.079 230.716 28.5703 230.716 26.7989V23.5989C230.716 21.8274 231.335 20.3187 232.575 19.0702C233.816 17.8217 235.315 17.1987 237.074 17.1987H246.609L246.611 17.2012ZM237.077 20.4013C236.207 20.4013 235.461 20.7165 234.835 21.3445C234.208 21.9725 233.898 22.7257 233.898 23.6014V26.8014C233.898 27.6771 234.211 28.4277 234.835 29.0582C235.459 29.6887 236.207 30.0015 237.077 30.0015C238.136 30.0015 239.194 29.4685 240.256 28.4027L243.435 25.2026V20.4038H237.077V20.4013Z" fill="white"/>
<path d="M262.886 33.2015H259.707C257.969 33.2015 256.476 32.5735 255.225 31.315C253.975 30.0565 253.351 28.5528 253.351 26.8039V20.4038H250.172V17.2037H253.351V10.8036H256.53V17.2037H259.709V20.4038H256.53V26.8039C256.53 27.6796 256.844 28.4302 257.467 29.0607C258.091 29.6912 258.839 30.0039 259.709 30.0039H262.888V33.204L262.886 33.2015Z" fill="white"/>
<path d="M278.779 33.2015V28.7855L276.808 30.8021C275.22 32.4009 273.756 33.2015 272.421 33.2015C270.661 33.2015 269.162 32.5785 267.922 31.33C266.682 30.0815 266.063 28.5728 266.063 26.8014V17.2037H269.242V26.8014C269.242 27.6771 269.555 28.4277 270.179 29.0582C270.803 29.6887 271.551 30.0015 272.421 30.0015C273.48 30.0015 274.539 29.4685 275.6 28.4027L278.779 25.2026V17.2037H281.958V33.2015H278.779Z" fill="white"/>
<path d="M288.316 17.2013V21.5848L290.319 19.6007C291.907 18.0019 293.359 17.2013 294.674 17.2013C296.433 17.2013 297.932 17.8243 299.172 19.0728C300.413 20.3213 301.032 21.83 301.032 23.6014H297.853C297.853 22.7282 297.539 21.9751 296.916 21.3446C296.289 20.7166 295.544 20.4014 294.674 20.4014C293.615 20.4014 292.554 20.9343 291.495 22.0001L288.316 25.2002V33.1991H285.137V17.2013H288.316Z" fill="white"/>
<path d="M319.355 33.2016H309.82C308.083 33.2016 306.589 32.5736 305.339 31.3151C304.089 30.0566 303.465 28.5529 303.465 26.804V23.6039C303.465 21.855 304.089 20.3513 305.339 19.0928C306.589 17.8343 308.083 17.2063 309.82 17.2063H312.999C314.737 17.2063 316.23 17.8368 317.481 19.0928C318.731 20.3513 319.355 21.855 319.355 23.6039V26.804H306.641C306.641 27.6797 306.954 28.4303 307.578 29.0608C308.202 29.6913 308.95 30.004 309.82 30.004H319.355V33.2041V33.2016ZM316.176 23.6039C316.176 22.7307 315.863 21.9776 315.239 21.3471C314.612 20.7191 313.867 20.4039 312.997 20.4039H309.818C308.948 20.4039 308.202 20.7191 307.576 21.3471C306.95 21.9776 306.639 22.7282 306.639 23.6039H316.173H316.176Z" fill="white"/>
<path d="M175.741 64.229H172.562V47.4305L169.383 50.6306V54.6288H166.204V50.6306L163.025 47.4305V64.229H159.846V41.8311H162.23L167.792 47.4305L173.355 41.8311H175.739V64.229H175.741Z" fill="white"/>
<path d="M191.634 64.2289V59.8129L189.663 61.8295C188.075 63.4283 186.611 64.2289 185.276 64.2289C183.516 64.2289 182.017 63.6059 180.777 62.3574C179.537 61.1089 178.918 59.6002 178.918 57.8288V48.2286H182.097V57.8288C182.097 58.7045 182.41 59.4551 183.034 60.0856C183.658 60.7161 184.406 61.0289 185.276 61.0289C186.335 61.0289 187.394 60.496 188.455 59.4301L191.634 56.23V48.2311H194.813V64.2289H191.634Z" fill="white"/>
<path d="M213.884 48.2311V51.4311H205.555C204.454 51.4311 203.515 51.5863 202.742 51.894C201.969 52.2043 201.581 52.5821 201.581 53.0299C201.581 53.4778 201.966 53.8581 202.742 54.1658C203.515 54.4761 204.452 54.6287 205.555 54.6287H206.351C208.322 54.6287 210.007 55.0991 211.404 56.0373C212.803 56.9756 213.501 58.1065 213.501 59.43C213.501 60.7536 212.803 61.8845 211.404 62.8227C210.004 63.761 208.322 64.2314 206.351 64.2314H197.992V61.0313H206.351C207.432 61.0313 208.364 60.8762 209.147 60.5684C209.93 60.2607 210.322 59.8804 210.322 59.4325C210.322 58.9847 209.93 58.6069 209.147 58.2966C208.361 57.9889 207.429 57.8338 206.351 57.8338H205.555C203.564 57.8338 201.874 57.3659 200.485 56.4251C199.095 55.4869 198.402 54.356 198.402 53.0324C198.402 51.7089 199.095 50.5805 200.485 49.6422C201.872 48.704 203.562 48.2336 205.555 48.2336H213.884V48.2311Z" fill="white"/>
<path d="M232.955 64.2289H223.421C221.684 64.2289 220.19 63.6009 218.94 62.3399C217.689 61.0814 217.065 59.5777 217.065 57.8288V54.6288C217.065 52.8799 217.689 51.3762 218.94 50.1176C220.19 48.8591 221.684 48.2286 223.421 48.2286H226.6C228.337 48.2286 229.831 48.8591 231.081 50.1176C232.332 51.3762 232.955 52.8799 232.955 54.6288V57.8288H220.242C220.242 58.7045 220.555 59.4551 221.179 60.0856C221.803 60.7161 222.551 61.0289 223.421 61.0289H232.955V64.2289ZM229.776 54.6288C229.776 53.7556 229.463 53.0025 228.839 52.372C228.213 51.744 227.467 51.4287 226.597 51.4287H223.418C222.548 51.4287 221.803 51.744 221.176 52.372C220.55 53.0025 220.239 53.7531 220.239 54.6288H229.774H229.776Z" fill="white"/>
<path d="M248.848 64.2289V59.8129L246.877 61.8295C245.289 63.4283 243.825 64.2289 242.49 64.2289C240.731 64.2289 239.232 63.6059 237.991 62.3574C236.751 61.1089 236.132 59.6002 236.132 57.8288V48.2286H239.311V57.8288C239.311 58.7045 239.624 59.4551 240.248 60.0856C240.872 60.7161 241.62 61.0289 242.49 61.0289C243.549 61.0289 244.608 60.496 245.669 59.4301L248.848 56.23V48.2311H252.027V64.2289H248.848Z" fill="white"/>
<path d="M271.098 64.2289H267.919V54.6288C267.919 53.7556 267.606 53.0025 266.982 52.372C266.356 51.744 265.61 51.4287 264.74 51.4287V64.2264H261.561V51.4287H258.382V64.2264H255.203V48.2286H264.738C266.475 48.2286 267.969 48.8591 269.219 50.1176C270.469 51.3762 271.093 52.8799 271.093 54.6288V64.2289H271.098Z" fill="white"/>
</g>
<defs>
<clipPath id="clip0_107_10524">
<rect width="319.355" height="75" fill="white"/>
</clipPath>
</defs>
</svg>
